<?xml version="1.0" encoding="UTF-8" standalone="no"?>
<!-- Created with Inkscape (http://www.inkscape.org/) -->

<svg
   version="1.1"
   id="svg1"
   width="1406.5415"
   height="683.953"
   viewBox="0 0 1406.5415 683.953"
   sodipodi:docname="200a.svg"
   inkscape:version="1.3 (0e150ed6c4, 2023-07-21)"
   xmlns:inkscape="http://www.inkscape.org/namespaces/inkscape"
   xmlns:sodipodi="http://sodipodi.sourceforge.net/DTD/sodipodi-0.dtd"
   xmlns="http://www.w3.org/2000/svg"
   xmlns:svg="http://www.w3.org/2000/svg">
  <defs
     id="defs1" />
  <sodipodi:namedview
     id="namedview1"
     pagecolor="#ffffff"
     bordercolor="#000000"
     borderopacity="0.25"
     inkscape:showpageshadow="2"
     inkscape:pageopacity="0.0"
     inkscape:pagecheckerboard="0"
     inkscape:deskcolor="#d1d1d1"
     showgrid="false"
     inkscape:zoom="0.7433095"
     inkscape:cx="694.86532"
     inkscape:cy="332.97032"
     inkscape:window-width="1920"
     inkscape:window-height="1011"
     inkscape:window-x="0"
     inkscape:window-y="0"
     inkscape:window-maximized="1"
     inkscape:current-layer="layer1" />
  <g
     inkscape:groupmode="layer"
     id="layer1"
     inkscape:label="Layer 1"
     transform="translate(-52.004985,-59.163771)">
    <path
       style="fill:#000000"
       d="m 1058.13,742.66665 c -0.396,-1.1 -3.7232,-10.60376 -7.3938,-21.11946 -19.6554,-56.31047 -50.89481,-117.08096 -70.73615,-137.60435 l -8.66666,-8.96458 -33.33334,-0.81958 c -18.33333,-0.45077 -47.58995,-0.82088 -65.01471,-0.82247 l -31.68138,-0.003 -12.31863,9.08605 c -60.10117,44.32981 -130.43448,80.92244 -190.9853,99.36477 -29.94481,9.12048 -40.58799,11.48946 -79.33333,17.65815 -4.05341,0.64535 -2.9145,-0.45286 8.66666,-8.35697 52.8798,-36.09031 98.06793,-79.26973 129.07919,-123.34129 9.1407,-12.99029 9.18372,-12.52515 -1.32803,-14.35943 -13.09298,-2.28469 -56.8384,-8.07514 -57.32554,-7.58801 -0.22662,0.22662 -3.39594,6.51382 -7.04294,13.97155 -8.85695,18.11151 -18.24191,31.74094 -27.5986,40.08043 -9.03101,8.0492 -7.0365,10.43539 -16.03327,-19.18192 -3.34145,-11 -6.46718,-20.73391 -6.94607,-21.63091 -0.62078,-1.16275 -2.58353,-0.47103 -6.83773,2.4098 -9.88496,6.69383 -31.55166,17.16411 -43.7887,21.16058 -12.71006,4.15095 -30.81598,7.47048 -48.17831,8.83299 l -11.33333,0.88938 3.44266,-3.83092 c 30.33978,-33.76144 57.22401,-64.9229 57.22401,-66.32823 0,-1.9936 -31.86243,-8.17046 -73.33334,-14.21643 l -28.66667,-4.17926 -10.58036,6.37363 c -17.10184,10.30218 -43.6922,20.14644 -68.43719,25.33676 -10.73768,2.25226 -11.06683,2.24582 -12.9576,-0.25321 -4.2598,-5.63021 -1.55893,-12.96702 11.00603,-29.89751 5.71455,-7.7 11.73079,-16.18767 13.36942,-18.8615 l 2.97932,-4.86149 -4.35648,-1.54877 c -7.27472,-2.58622 -33.65347,-5.38376 -59.30148,-6.28907 -19.84057,-0.70033 -24.69409,-0.51414 -26.55281,1.0186 -1.25096,1.03156 -10.64608,12.37556 -20.87805,25.2089 -43.15021,54.12069 -78.22675,84.16502 -125.29525,107.31992 -11.1809,5.50034 -28.955939,13.01843 -39.500096,16.70688 l -19.171195,6.70627 9.272615,-10.36654 C 91.97694,605.03533 97.55942,597.0416 106.62996,579.74777 123.6402,547.31618 137.85282,503.5465 149.3824,448.08591 c 3.70589,-17.82641 4.1867,-22.37666 3.59266,-34 -2.03768,-39.87064 -27.30592,-105.70237 -77.310912,-201.41925 -10.344035,-19.8 -19.897875,-37.8 -21.230757,-40 -1.332881,-2.2 -2.425663,-4.52096 -2.428404,-5.1577 -0.0081,-1.88059 22.590587,0.55781 31.995018,3.45227 24.409585,7.51268 42.860225,19.82868 69.408285,46.33076 31.57692,31.52223 55.82198,65.34982 90.14488,125.77339 3.24877,5.71929 10.42084,19.40333 15.93791,30.40898 l 10.03104,20.01026 51.57228,-0.91833 c 28.36476,-0.50508 67.96587,-1.28912 88.00248,-1.74231 l 36.43019,-0.82399 8.47634,-21.79542 c 4.66199,-11.98748 8.68818,-22.00726 8.94709,-22.26617 0.25891,-0.2589 7.50291,6.15062 16.09778,14.24338 l 15.62703,14.71412 50.99569,-18.26958 c 71.231,-25.51903 252.08663,-92.53151 253.48783,-93.9249 3.20161,-3.18377 13.94476,-55.68721 18.14992,-88.70142 6.51395,-51.14032 6.2241,-90.191355 -0.8495,-114.453863 -1.14842,-3.939069 38.53033,23.469907 58.20746,40.208105 36.5487,31.089848 61.45453,66.263958 75.7018,106.912418 2.18478,6.23333 4.70801,14.63537 5.60719,18.67118 l 1.63486,7.33786 52.86144,-0.005 c 55.0424,-0.005 63.8269,0.55733 104.8614,6.70898 75.1994,11.27346 156.6643,35.81164 244.6667,73.69645 37.5826,16.17924 86.5969,38.69217 90.8817,41.74315 7.4902,5.33353 9.6544,14.125 5.7673,23.42823 -7.9013,18.91046 -48.9597,50.30244 -102.3177,78.22895 -8.9822,4.70111 -19.2069,9.60825 -22.7214,10.90475 -6.1164,2.25632 -6.7446,2.25542 -14.6667,-0.0211 -4.5521,-1.3081 -14.8118,-2.67995 -22.7993,-3.04856 -16.2903,-0.75178 -15.7788,-1.41814 -7.245,9.43838 2.7743,3.5294 5.7543,8.78716 6.6222,11.68391 1.4552,4.857 1.3277,5.53467 -1.6382,8.70932 -17.8114,19.06459 -110.0061,50.96796 -182.6599,63.20825 -13.462,2.26799 -24.7107,4.35799 -24.9972,4.64444 -0.2864,0.28645 0.4333,8.80446 1.5994,18.9289 5.62,48.79358 3.296,89.1528 -7.0488,122.40807 -5.4112,17.3953 -19.1331,43.53675 -20.6465,39.33333 z m 7.7201,-34.33334 c 7.9336,-20.89904 11.7785,-46.0249 11.987,-78.33333 0.1389,-21.5111 -2.7698,-60.26169 -4.6085,-61.39812 -0.5461,-0.33747 -3.1827,2.36968 -5.8593,6.01589 l -4.8665,6.62947 2.8968,13.04305 c 6.2297,28.04966 4.8049,70.23984 -3.4694,102.734 -3.0822,12.10424 -3.3276,20.30904 -0.6074,20.30904 0.6109,0 2.6482,-4.05 4.5273,-9 z M 622.53611,675.36148 c 44.98651,-12.42287 94.91319,-34.67062 144.30716,-64.3045 25.27407,-15.16315 64.71955,-43.13338 74.24546,-52.64638 15.79426,-15.77288 30.925,-39.35373 36.13383,-56.31362 3.26295,-10.62412 3.3107,-10.54602 -7.88918,-12.9027 -9.54671,-2.00881 -31.40703,-0.75953 -48.54268,2.77413 -11.27581,2.32527 -16.26451,2.66015 -14.01288,0.94065 2.51094,-1.91751 42.1554,-7.76038 53.50668,-7.88591 13.06369,-0.14445 23.71555,1.79032 23.71555,4.30763 0,3.55846 27.68167,2.12292 42.39433,-2.19852 7.27853,-2.13787 8.29088,-2.82007 7.61604,-5.13227 -7.7057,-26.4021 -5.05654,-59.74406 7.18012,-90.36804 2.27857,-5.70242 4.14284,-11.20957 4.14284,-12.2381 0,-1.02853 0.77875,-2.66291 1.73056,-3.63195 0.95181,-0.96905 4.85095,-6.86191 8.66476,-13.09524 6.51548,-10.64899 17.39989,-24.39028 15.8419,-20 -0.39036,1.1 -3.19331,7.55086 -6.22879,14.33524 -3.03547,6.78438 -5.81577,13.9716 -6.17844,15.9716 -0.36267,2 -1.15529,3.94914 -1.76139,4.33142 -1.46612,0.92474 -9.89852,25.97323 -13.25085,39.36174 -4.44406,17.74865 -6.81775,35.81573 -6.81775,51.89257 v 15.25461 l 4.33334,-1.23776 c 4.12044,-1.17695 6.87388,-2.39735 21.16914,-9.38275 l 6.16915,-3.01456 0.70176,-22.08939 c 0.78797,-24.80288 3.69604,-38.32849 12.4895,-58.08939 2.61062,-5.86667 5.63086,-13.05994 6.71165,-15.98505 1.08078,-2.92511 2.40825,-5.62511 2.94993,-6 0.54168,-0.37489 3.00421,-3.68162 5.47229,-7.34828 6.32646,-9.39879 13.59206,-18.18899 14.38166,-17.39942 0.3675,0.36757 0.051,1.43281 -0.7039,2.3672 -0.7548,0.93438 -4.074,7.99888 -7.3761,15.69888 -15.41507,35.94568 -23.4186,65.11204 -27.00611,98.41543 l -0.90653,8.41543 8.47378,-0.94686 c 4.66058,-0.52077 11.47378,-1.30771 15.14045,-1.74876 l 6.66671,-0.80191 0.3293,-6 c 1.5155,-27.60782 6.8778,-50.19644 17.0131,-71.66715 6.0791,-12.87793 18.5931,-32.71791 23.3549,-37.02731 l 2.7706,-2.50732 -2.734,6.3781 c -1.5037,3.50796 -2.7339,7.76417 -2.7339,9.45824 0,1.69408 -0.7937,3.38469 -1.7637,3.75692 -2.0228,0.77623 -10.8526,23.34225 -16.8026,42.94186 -3.6544,12.0378 -7.803,31.56137 -10.0218,47.16344 -0.8287,5.82732 -0.8273,5.8297 2.8795,4.97348 2.0397,-0.47115 6.1086,-1.20947 9.0419,-1.64071 5.7061,-0.83888 15.1375,-3.66576 18.9841,-5.69013 1.2921,-0.67998 5.2033,-2.2407 8.6916,-3.46826 3.4883,-1.22757 10.4945,-5.48076 15.5693,-9.45155 5.0749,-3.97078 9.7973,-7.2196 10.4944,-7.2196 0.6971,0 2.0029,-0.88622 2.9018,-1.96938 0.899,-1.08316 5.0225,-3.62647 9.1633,-5.65181 4.1409,-2.02534 10.8288,-6.82651 14.8622,-10.66926 4.0333,-3.84275 8.5333,-7.00168 10,-7.01984 1.4666,-0.0182 4.5744,-1.19628 6.9061,-2.61804 2.3318,-1.42177 6.8318,-3.28066 10,-4.13088 3.1683,-0.85021 9.4855,-3.28471 14.0383,-5.40999 7.4149,-3.46138 9.708,-3.86902 22,-3.91098 7.5472,-0.0258 17.6222,-0.90468 22.3889,-1.95316 4.7667,-1.04847 13.8776,-1.9274 20.2465,-1.95316 6.369,-0.0258 13.1563,-0.64619 15.083,-1.37873 4.8295,-1.83617 79.3372,-2.95291 79.3372,-1.18912 0,0.73978 0.5179,1.02498 1.1508,0.63378 1.0408,-0.64325 8.6237,1.62459 25.5158,7.63115 3.3,1.17342 10.2,2.71119 15.3334,3.41726 5.1333,0.70608 11.7333,1.93975 14.6666,2.74149 2.9334,0.80175 9.8989,2.35872 15.4789,3.45994 5.5801,1.10123 13.6693,3.43582 17.976,5.18799 l 7.8304,3.18577 7.9414,-5.53485 c 10.7154,-7.46824 30.4176,-27.15062 32.6926,-32.65971 3.7719,-9.13386 2.6522,-10.03829 -31.9496,-25.80874 -73.1288,-33.32983 -118.8065,-51.59182 -169.303,-67.68745 -62.8995,-20.04907 -115.8959,-31.16292 -175.3333,-36.76911 -26.2359,-2.47459 -76.34888,-2.73734 -102.2792,-0.53626 -9.50987,0.80724 -17.45209,1.27092 -17.64938,1.0304 -0.19728,-0.24052 -2.34633,-7.93731 -4.77565,-17.10398 -14.3896,-54.29693 -43.63667,-95.4146 -95.26553,-133.931214 -8.08333,-6.030395 -15.51771,-11.441985 -16.52084,-12.025753 -1.51902,-0.883984 -1.66944,1.363832 -0.89994,13.447788 2.04853,32.169019 -7.13931,110.195919 -17.97153,152.621529 -1.45089,5.68257 -2.63799,10.61791 -2.63799,10.96741 0,0.34951 6.45,-0.73014 14.33334,-2.39921 24.61587,-5.21169 74.59841,-11.634 86.89824,-11.16564 3.49571,0.13312 3.87875,0.32681 1.4351,0.72572 -18.39189,3.0023 -50.32454,9.34733 -62.76422,12.47126 -25.96421,6.5203 -41.11755,11.76222 -140.56913,48.62637 -168.86206,62.59282 -238.80846,86.9644 -241.59381,84.17905 -0.29017,-0.29017 2.94973,-2.47425 7.19977,-4.85351 4.25005,-2.37926 7.98635,-4.56093 8.30289,-4.84817 0.75293,-0.68322 -7.26591,-9.00433 -13.40472,-13.91001 l -4.82919,-3.85913 -7.08206,18.44265 -7.08207,18.44265 -60.08875,0.87423 c -33.04881,0.48083 -75.76538,1.25906 -94.92572,1.7294 l -34.83697,0.85518 -11.67524,-23.1953 C 203.04931,285.30044 150.76518,217.49768 105.08768,191.5625 94.465093,185.53111 72.707815,177.51441 71.160544,179.06168 c -0.40713,0.40713 6.436726,14.4348 15.20857,31.17261 60.676826,115.77917 84.176306,187.11559 75.688906,229.7657 -7.56511,38.01544 -18.2265,77.45664 -28.15544,104.15942 -6.91457,18.59598 -18.67632,43.97695 -24.81917,53.55794 -2.25122,3.51121 -3.70021,6.77693 -3.21999,7.25716 1.18511,1.18511 22.52312,-9.21553 38.62236,-18.82544 33.12924,-19.77541 65.66851,-49.84723 99.81063,-92.242 21.29422,-26.44134 33.20005,-38.06865 42.37027,-41.37904 11.73757,-4.2372 17.21014,-4.5759 30,-1.85673 11.70341,2.48818 29.79009,5.77887 55.24312,10.05091 6.91704,1.16096 13.51704,2.61163 14.66667,3.2237 1.14962,0.61208 6.29022,1.53207 11.42355,2.04444 5.13334,0.51236 12.33334,1.74945 16,2.74909 3.66667,0.99964 10.56667,2.22607 15.33334,2.7254 4.76666,0.49934 10.13959,1.4559 11.93984,2.12571 1.80025,0.6698 7.20025,1.78541 12,2.47913 15.04538,2.17454 24.92289,4.52667 27.28532,6.49744 1.40366,1.17094 5.95621,2.02653 11.85983,2.22887 10.84456,0.3717 23.67027,2.18188 30.38396,4.2883 2.49208,0.78189 13.53105,2.36131 24.53105,3.50983 11,1.14851 23,2.65864 26.66667,3.35584 3.66667,0.6972 12.82752,1.92933 20.35745,2.73808 7.52994,0.80874 17.00921,2.33478 21.06506,3.39119 4.05585,1.05642 12.34727,1.92076 18.42539,1.92076 6.07811,0 16.99884,0.89646 24.26828,1.99214 7.26944,1.09567 21.61716,2.00021 31.88383,2.01007 10.26666,0.01 22.26667,0.58919 26.66667,1.2874 4.4,0.69821 13.78925,1.44367 20.86501,1.65659 11.77676,0.35438 12.75968,0.58451 11.61976,2.72046 -0.6849,1.28334 -2.57415,2.35242 -4.19835,2.37574 -1.6242,0.0233 -3.88516,0.77332 -5.02436,1.66667 -3.32421,2.60679 -10.15389,13.23157 -16.63682,25.88151 -11.01883,21.5007 -23.01817,38.58268 -44.77646,63.74275 -15.21364,17.5922 -46.60673,48.15768 -62.84879,61.19193 -7.15,5.73787 -13,10.667 -13,10.95361 0,1.11618 3.67519,0.35459 19.86941,-4.11738 z m 31.46393,-15.87753 c 21.96475,-9.06079 69.6846,-34.30419 98.67443,-52.19794 28.65615,-17.68779 48.38212,-32.55909 67.97903,-51.24904 14.36386,-13.69908 21.65869,-22.11974 25.26211,-29.16089 1.25459,-2.45148 2.59738,-4.14092 2.98399,-3.75432 1.0476,1.0476 -4.80185,11.29637 -10.77468,18.87823 -33.18021,42.11868 -111.24953,92.63175 -183.61953,118.80703 -12.69502,4.59162 -12.98746,3.82598 -0.50535,-1.32307 z M 801.33338,495.47597 c 0,-0.28821 0.93116,-0.88133 2.06925,-1.31806 1.18656,-0.45533 1.72176,-0.2318 1.25464,0.52402 -0.78301,1.26693 -3.32389,1.87393 -3.32389,0.79404 z m 96.87977,-13.21523 c -9.61802,-20.26847 -8.58473,-56.46283 2.54668,-89.20568 5.79995,-17.06048 19.13756,-40.80486 29.8019,-53.05507 l 4.06254,-4.66667 -4.1721,9.33334 c -5.51156,12.32984 -13.11667,31.63615 -13.127,33.32416 -0.005,0.73838 -0.86717,2.9891 -1.91701,5.00161 -1.04984,2.01252 -3.40877,8.61252 -5.24206,14.66667 -9.55971,31.56931 -13.4292,62.46089 -10.23055,81.67422 0.61043,3.66667 0.95321,6.83812 0.76173,7.04768 -0.19148,0.20955 -1.30934,-1.64456 -2.48413,-4.12026 z M 1292.4109,352.4025 c -3.7561,-0.72959 -11.0781,-8.18273 -10.2244,-10.40749 0.9561,-2.49169 16.8318,-3.94099 20.7214,-1.89167 3.8362,2.02118 5.0456,3.77366 5.0718,7.3493 0.033,4.54432 -6.6756,6.67729 -15.5688,4.94986 z M 923.59318,234.93165 c -2.53578,-32.88335 -19.70516,-76.13074 -38.30038,-96.47362 -6.87795,-7.52436 -6.84973,-9.64705 0.0394,-2.96401 2.93268,2.84495 5.33268,5.6863 5.33333,6.3141 6.5e-4,0.62781 1.65119,3.33018 3.66785,6.00527 16.01105,21.23853 30.90888,60.25304 34.31077,89.85327 0.80241,6.98182 0.65199,7.66667 -1.68387,7.66667 -2.24335,0 -2.66556,-1.30431 -3.3671,-10.40168 z m -410.8231,341.13409 c 34.80601,-8.3451 69.84935,-29.72844 85.87242,-52.39909 2.46194,-3.48333 4.97454,-6.33333 5.58356,-6.33333 2.28649,0 0.95674,3.08516 -3.64413,8.45471 l -4.75144,5.54529 5.08477,0.92316 c 2.79663,0.50774 9.61916,0.95774 15.16118,1 11.03833,0.0842 43.97273,3.86263 71.48609,8.20136 l 17.56249,2.76952 9.77084,-10.2545 c 5.37397,-5.63998 10.50056,-11.61585 11.39244,-13.27973 0.89188,-1.66387 2.99188,-3.48719 4.66667,-4.05183 1.75329,-0.5911 -9.96432,-1.50988 -27.6216,-2.16582 -37.46651,-1.39181 -83.40318,-5.79469 -94.03522,-9.01297 -5.01478,-1.51795 -34.36191,-5.23938 -72.83582,-9.23611 -6.7124,-0.6973 -14.2124,-1.88812 -16.66666,-2.64628 -3.85957,-1.19227 -11.89776,-2.40181 -31.79564,-4.78444 -11.84333,-1.41816 -105.49522,-19.34596 -133.9176,-25.63588 -18.67663,-4.13317 -34.61687,-7.24559 -48.20006,-9.41134 -4.74813,-0.75705 -22.17982,4.06349 -24.4096,6.75021 -1.25233,1.50896 2.44854,1.96993 22.17871,2.76249 38.32546,1.53954 62.546,5.60296 68.42201,11.47897 5.2778,5.27779 3.10052,10.92458 -12.53908,32.52023 -6.34392,8.75987 -11.53439,16.36779 -11.53439,16.90649 0,1.3804 26.63138,-5.96442 38.95522,-10.74368 11.40576,-4.42322 19.10042,-8.16686 26.89799,-13.08652 l 5.18655,-3.2723 -13.18655,-5.81833 c -7.2526,-3.20008 -12.66591,-5.83956 -12.02957,-5.86551 0.63633,-0.026 9.93633,1.78436 20.66666,4.02292 10.73034,2.23856 31.2097,5.85588 45.50971,8.03849 45.84427,6.99719 72.92363,12.724 81.25864,17.18476 1.40842,0.75376 2.94955,2.59546 3.42475,4.09266 0.95731,3.01624 -2.65805,7.77369 -28.90565,38.0369 -20.68926,23.85451 -19.24595,21.91219 -16.27434,21.90107 1.37313,-0.005 7.34312,-1.17134 13.26665,-2.59157 z m 14.56328,-11.66616 c 0.73334,-0.6784 6.73334,-3.55248 13.33334,-6.38685 14.65574,-6.29389 34.16732,-19.50772 42.51521,-28.79259 5.20265,-5.7866 5.93748,-7.23946 4.58047,-9.05623 -1.40791,-1.88493 -1.30272,-1.87777 0.81587,0.0556 2.3488,2.1434 2.33348,2.35809 -0.44701,6.26291 -7.67849,10.78345 -29.73125,26.66331 -46.49942,33.48354 -11.24156,4.57235 -16.0652,6.06806 -14.29846,4.43366 z m 55.33334,-45.73293 c -1.7092,-1.10456 -1.66073,-1.29546 0.33333,-1.31291 1.28334,-0.0112 2.33334,0.57958 2.33334,1.31291 0,1.62615 -0.15039,1.62615 -2.66667,0 z m 438.5602,38.60825 c 66.7652,-6.9319 90.9917,-10.37762 121.6567,-17.30316 44.9251,-10.14613 90.0243,-25.53686 121.7831,-41.56023 7.3334,-3.69991 14.12,-7.36 15.0815,-8.13355 3.6726,-2.95465 -27.0259,-19.76677 -56.5396,-30.96413 -29.4808,-11.18485 -58.6874,-18.54964 -90.2085,-22.74718 -11.8698,-1.58065 -17,-2.78536 -17,-3.99205 0,-2.21377 1.5161,-2.65359 20.0071,-5.80407 72.3405,-12.32533 144.3892,-1.7059 180.1366,26.55075 3.7193,2.93996 7.2249,5.34537 7.7902,5.34537 4.4122,0 54.0635,-26.52634 70.999,-37.9314 l 6.6232,-4.46031 -7.6909,-2.87752 c -4.23,-1.58264 -12.6453,-3.7415 -18.7007,-4.79748 -6.0554,-1.05597 -12.3946,-2.49032 -14.0872,-3.18743 -1.6925,-0.69712 -9.0252,-2.2297 -16.2948,-3.40574 -7.2696,-1.17603 -15.6696,-3.2543 -18.6666,-4.61836 -6.5704,-2.99036 -22.0396,-6.25843 -34.7826,-7.34823 -13.144,-1.12409 -85.6259,3.05848 -92.8754,5.35939 -1.6497,0.52358 -11.4276,1.36787 -21.7287,1.87619 -16.3136,0.80502 -19.6751,1.37443 -26.0626,4.41485 -4.0333,1.91984 -10.0278,4.18688 -13.3211,5.03786 -3.2933,0.85098 -7.5928,2.6901 -9.5544,4.08694 -1.9617,1.39683 -5.3505,2.89645 -7.5307,3.33249 -2.2816,0.45632 -6.6935,3.56402 -10.3954,7.32244 -3.5373,3.59131 -7.1437,6.52965 -8.0143,6.52965 -0.8705,0 -4.538,1.95 -8.15,4.33333 -3.6121,2.38334 -8.763,5.47278 -11.4466,6.86544 -2.6836,1.39266 -7.9247,5.13162 -11.6468,8.30881 -3.7222,3.17718 -8.6816,6.61288 -11.0208,7.63488 -6.7064,2.92998 -29.0458,9.83619 -34.9199,10.79543 -10.2736,1.67772 -10.0031,1.37509 -9.9682,11.15196 0.018,4.90058 0.5844,11.2933 1.2597,14.20605 0.6753,2.91274 0.9761,5.54766 0.6684,5.85538 -1.1303,1.13022 -6.28,-12.72475 -7.6732,-20.64393 l -1.4354,-8.15931 -4.0923,1.00834 c -2.2508,0.55458 -9.37281,1.7777 -15.82676,2.71804 l -11.73445,1.70971 0.90158,7.44127 c 0.49587,4.09269 1.47499,8.54265 2.17581,9.88879 0.70083,1.34614 0.93339,2.78837 0.5168,3.20496 -0.8796,0.8796 -7.45863,-13.47915 -7.45863,-16.27848 0,-2.34549 -2.66759,-4.12411 -3.81674,-2.54483 -1.43274,1.96902 -9.57812,5.83749 -12.29131,5.83749 -1.40724,0 -2.55861,0.45353 -2.55861,1.00785 0,1.15731 -5.66377,3.77337 -10.91124,5.03983 -2.59147,0.62545 -3.36447,1.47311 -2.80376,3.07459 0.61399,1.75364 0.41748,1.88121 -0.94988,0.61662 -1.72013,-1.59085 -8.69538,-1.00031 -11.33513,0.95966 -2.88459,2.14176 -16.10885,3.96812 -28.73229,3.96812 h -13.26771 l -0.0328,4.33333 c -0.0479,6.32528 -6.27221,24.0664 -9.23888,26.33333 -0.47984,0.36667 -2.24378,3.36667 -3.91986,6.66667 -1.67608,3.3 -4.40128,7.5 -6.056,9.33333 -1.65472,1.83334 -5.53918,6.93334 -8.63214,11.33334 l -5.62357,8 33.08495,0.70183 c 72.47005,1.53732 67.22315,1.74621 136.31182,-5.42692 z m 248.5756,-88.64238 c -0.4113,-1.0718 -1.8167,-4.04534 -3.1232,-6.60786 l -2.3754,-4.65914 -2.1008,2.9839 -2.1009,2.9839 -0.8806,-3.0281 c -0.6811,-2.34216 -1.2835,-2.6937 -2.6593,-1.55188 -2.6366,2.1882 -4.5564,0.31336 -4.6066,-4.49871 l -0.044,-4.25464 -2.5027,3 c -2.9923,3.58686 -4.0753,3.78174 -4.0753,0.73333 0,-1.76296 -0.3556,-1.91111 -1.6,-0.66667 -2.5936,2.59362 -3.7333,1.86095 -3.7333,-2.4 0,-4.76002 -1.5651,-5.11297 -4.4341,-0.99999 l -2.0927,2.99999 -0.07,-3.16325 c -0.056,-2.54759 -0.4309,-2.86368 -1.9246,-1.62401 -1.4929,1.23902 -2.1602,0.68568 -3.4211,-2.83674 l -1.5664,-4.37599 -1.6727,3.98806 -1.6727,3.98806 -0.8633,-3.30151 c -0.8258,-3.1579 -0.9433,-3.19226 -2.6999,-0.78988 -1.7158,2.34641 -1.8982,2.21352 -2.7728,-2.01988 -0.9014,-4.36262 -1.0104,-4.43237 -2.9257,-1.87135 -1.5951,2.13304 -2.2122,2.2995 -3.1142,0.84003 -0.9082,-1.46936 -1.3826,-1.35982 -2.4616,0.56838 -1.1931,2.13186 -1.5785,1.92104 -3.5864,-1.96188 -2.1176,-4.09508 -2.3588,-4.2063 -4.11,-1.89521 -1.2659,1.67071 -1.8739,1.87707 -1.9028,0.64586 -0.024,-1.04549 -0.8781,-1.48862 -2.022,-1.04965 -1.1746,0.45074 -2.568,-0.33958 -3.4263,-1.94344 -1.1334,-2.11777 -1.847,-2.37089 -3.2953,-1.1689 -1.0167,0.84382 -2.4749,1.14715 -3.2404,0.67407 -0.7654,-0.47308 -1.3917,-0.22473 -1.3917,0.55188 0,3.02765 -3.7638,1.2013 -5.3333,-2.58798 -1.9422,-4.68872 -4,-5.24357 -4,-1.07849 0,2.85509 -0.044,2.86267 -1.9576,0.33333 -1.7713,-2.34186 -1.9617,-2.36611 -2,-0.25484 -0.065,3.59328 -3.4183,2.76373 -5.2718,-1.30427 -1.5284,-3.35442 -1.7648,-3.44576 -3.0365,-1.17336 -1.1164,1.99494 -1.6033,2.11637 -2.5566,0.6376 -0.9104,-1.41216 -1.3642,-1.14592 -1.9997,1.17337 -1.1593,4.22998 -3.8876,3.72437 -5.8818,-1.08999 -1.2206,-2.94682 -1.9975,-3.59899 -2.7798,-2.33333 -0.5971,0.96616 -1.5575,1.83736 -2.1343,1.93601 -3.222,0.55112 -7.0486,2.2693 -7.0486,3.16494 0,0.5683 1.65,1.50846 3.6667,2.08924 4.2549,1.22538 3.1899,1.0769 22.9758,3.2032 8.4201,0.90486 16.5036,2.48177 17.9634,3.50423 1.4598,1.02247 4.5852,1.85903 6.9454,1.85903 2.3602,0 4.6621,0.6 5.1154,1.33333 0.4532,0.73334 2.3259,1.33334 4.1615,1.33334 1.8356,0 6.4501,0.92689 10.2546,2.05976 3.8045,1.13288 9.0172,2.66563 11.5839,3.40611 2.5666,0.74049 7.3666,2.47423 10.6666,3.85275 3.3,1.37852 8.6783,3.59577 11.9517,4.92722 3.2734,1.33145 9.5734,4.25379 14,6.49408 8.3775,4.23984 10.4466,4.51604 9.1841,1.22594 z m 35.5309,-11.46246 c 0,2.46781 3.8032,1.6891 5.2864,-1.08242 1.8434,-3.44437 1.7459,-4.08765 -0.6197,-4.08765 -1.1,0 -2,-0.50369 -2,-1.11931 0,-1.47789 -6.1008,-4.21402 -9.3961,-4.21402 -1.4322,0 -2.6039,-0.45846 -2.6039,-1.0188 0,-1.47404 -10.0852,-5.61978 -16.6583,-6.84776 -3.0978,-0.57875 -7.0506,-2.04553 -8.7838,-3.25952 -1.7332,-1.21399 -5.0678,-2.20726 -7.4102,-2.20726 -2.3423,0 -4.4881,-0.68763 -4.7682,-1.52806 -0.4893,-1.46786 -3.9937,-1.95694 -21.9048,-3.05698 -4.5056,-0.27672 -9.5608,-1.23571 -11.2338,-2.13108 -1.673,-0.89537 -9.557,-1.85733 -17.5201,-2.13769 -7.963,-0.28036 -14.9078,-0.57399 -15.4328,-0.65253 -3.1992,-0.47847 -8.288,0.35573 -8.288,1.35863 0,0.65209 1.1569,2.60209 2.571,4.33333 l 2.5711,3.14772 1.2039,-3.2133 1.204,-3.21329 2.1514,3.07167 2.1515,3.07167 0.9096,-3.62412 0.9096,-3.62411 3.4973,5.76574 c 3.4367,5.66586 3.5045,5.70222 3.9191,2.09907 0.4596,-3.99429 1.5066,-4.5382 3.9781,-2.06667 1.2445,1.24445 1.6,1.0963 1.6,-0.66666 0,-1.37778 1.0458,-2.26667 2.6667,-2.26667 1.697,0 2.6667,0.88889 2.6667,2.44444 0,4.01247 1.7465,4.5391 4.2526,1.28229 l 2.3547,-3.06006 0.03,3.16326 c 0.025,2.64382 0.3544,2.8937 2.0075,1.52174 1.6408,-1.3617 2.2086,-1.03493 3.3309,1.91697 1.4064,3.69911 4.0246,3.52421 4.0246,-0.26884 0,-1.8207 0.3116,-1.7534 1.9081,0.41203 1.8548,2.51583 1.9448,2.49501 3.22,-0.74516 l 1.312,-3.33334 1.6386,4.50984 c 1.6208,4.46106 1.656,4.47713 3.2565,1.48653 1.1989,-2.24004 1.8927,-2.57887 2.6783,-1.30785 0.8181,1.32375 1.4674,1.15858 2.8435,-0.72333 1.6553,-2.26384 1.8936,-2.1222 3.3217,1.97451 1.5205,4.36149 1.5574,4.37799 3.1481,1.40581 l 1.6095,-3.00748 0.8936,3.16432 0.8936,3.16432 1.7984,-3.21153 1.7983,-3.21153 1.6798,5.08973 1.6797,5.08972 1.7796,-3.21153 c 1.3785,-2.48791 1.7902,-2.68579 1.8268,-0.87819 0.026,1.28333 0.583,2.33333 1.2379,2.33333 0.6549,0 1.6037,-1.05 2.1086,-2.33333 0.7474,-1.89995 1.4107,-1.38158 3.5715,2.79083 2.4835,4.79556 2.7731,4.96656 4.5157,2.66666 1.3975,-1.84444 1.8726,-1.9752 1.9044,-0.52416 0.033,1.5037 0.398,1.57778 1.6424,0.33333 3.0647,-3.06462 5.0667,-1.7712 5.0667,3.27332 0,4.78886 0.046,4.83149 2.6667,2.46001 1.945,-1.76024 2.6666,-1.92441 2.6666,-0.60665 0,1.40518 0.3556,1.4511 1.6,0.20665 2.8902,-2.89015 5.0667,-1.78903 5.0667,2.56326 0,3.5495 0.2949,3.91856 2,2.50341 1.3818,-1.1468 2,-1.19727 2,-0.16326 z"
       id="path1" />
  </g>
</svg>
